<?xml version="1.0" encoding="UTF-8"?>
<svg id="Layer_2" data-name="Layer 2" xmlns="http://www.w3.org/2000/svg" viewBox="0 0 678.49 858.3">
  <defs>
    <style>
      .cls-1 {
        fill: #60464f;
      }
    </style>
  </defs>
  <g id="Layer_1-2" data-name="Layer 1">
    <path class="cls-1" d="M55.12,373.51c-17.72.34-47.92-1.01-50.73,2.69l-.27.18c-4.07,3.03-3.74,8.43-4.05,13.35l-.08,445.25c.12,19.41.06,22.74,20.16,23.15l240.18.15c23.9-1.14,44.26,4.98,42.79-15.65.26-60.3.11-382.47.08-450.51-.22-6.43.26-12.9-4.92-16.09-3.7-2.07-10.5-2.38-21.7-2.49l-221.47-.04ZM241.64,534.3l-.98,1.46c-10.9,6.82-31.57,7.95-52.5,7.95-5.33,0-10.67-.08-15.88-.15-8.8-.1-17.1-.23-24.02.02-5.87-.02-11.59-.02-17.17,0-10.58.02-20.65.03-29.43-.17l-6.21-.39c-12.84-.77-23.92-1.44-32.53-7.38l-1.02-.7-.24-1.22c-.41-2.13.12-4.16,1.55-5.87,6.79-8.15,36.09-8.51,70.84-8.19,7.84.07,14.63.14,19.13-.05,3.84.11,9.13.05,15.31,0,35.79-.25,65.96.17,72.17,8.63,1.31,1.78,1.65,3.93.97,6.05ZM241.29,620.3l-.95,1.26c-8.37,6.32-23.94,7.24-39.4,7.24-3.27,0-6.53-.04-9.72-.08-5.25-.07-10.22-.13-14.48,0-2.79-.03-5.46,0-8.12,0-13.41.09-27.33.09-38.71-4.17-5.88-2.87-8.27-6.01-7.37-9.45,2.45-9.42,32.97-10.93,43.21-10.34,2.65.17,7.82.09,13.78,0,30.15-.48,55.56-.16,61.24,8.31,1,1.49,1.91,3.95.51,7.21ZM61.15,444.84c2.41-9.46,33.71-10.98,44.23-10.38h.03c2.7.16,8.01.09,14.15,0,31.01-.47,57.07-.14,62.73,8.39.99,1.48,1.87,3.94.45,7.16l-1.29,1.54c-8.25,6.05-24.05,6.94-39.81,6.94-3.41,0-6.82-.04-10.15-.08-5.39-.06-10.48-.13-14.86,0-2.85-.03-5.58,0-8.31,0-13.75.07-28,.09-39.64-4.16-2.4-1.13-8.87-4.22-7.54-9.41ZM64.11,609.09c4.28-3.81,12.38-4.74,18.54-4.32,8.75-.05,17.06-.13,21.13,4.27,4.07,3.76,4.67,10.27,1.2,14.67l-.57.67c-3.72,3.76-9.77,4.45-15.88,4.45-1.81,0-3.63-.06-5.39-.12-2.18-.08-4.21-.16-5.95-.07-6.06-.03-10.83-1.73-13.58-4.77-2.03-2.25-2.94-5.18-2.63-8.48.11-2.35,1.2-4.58,3.14-6.31ZM61.39,698.07c3.69-9.45,29.81-9.58,35.01-9.22,1.82.07,4.31.02,7.21-.02,19.65-.27,37.6.17,42.41,7.77,1.11,1.76,2.02,4.7.05,8.71l-1.14,1.37c-6.29,5.43-17.69,6.2-28.92,6.2-2.24,0-4.47-.03-6.66-.06-3.53-.04-6.89-.1-9.86,0l-4.82-.02c-10.42,0-20.26-.02-28.62-4.62-5.52-4.32-5.55-7.85-4.66-10.11ZM241.64,788.07l-1.53,1.88c-10.4,6.44-30.79,7.54-51.56,7.54-5.47,0-10.97-.08-16.32-.15-8.78-.13-17.07-.25-23.97,0-5.86-.02-11.59-.02-17.16,0-10.57.03-20.65.06-29.44-.17l-6.2-.39c-12.84-.77-23.92-1.44-32.53-7.38l-1.02-.7-.24-1.22c-.41-2.13.12-4.16,1.55-5.87,6.79-8.16,36.15-8.54,70.89-8.19,7.83.07,14.6.14,19.08-.04,3.83.12,9.1.06,15.25,0,35.87-.31,66.01.17,72.23,8.62,1.31,1.78,1.65,3.94.97,6.06ZM241.02,705.24l-.88,1.18c-6.12,5.66-16.91,6.45-27.51,6.45-2.07,0-4.14-.03-6.16-.06-3.3-.04-6.45-.09-9.2,0l-4.52-.02c-9.79,0-19.04-.02-26.93-4.66-5.32-4.44-5.23-8-4.3-10.27,3.5-8.5,25.68-9.59,32.94-9.01,1.53.06,3.89.02,6.64-.02,18.12-.29,34.88.16,39.68,7.54,1.15,1.77,2.13,4.74.23,8.87ZM240.55,453.25l-.49.66c-3.41,3.91-9.08,4.6-14.52,4.6-1.59,0-3.15-.06-4.64-.11-1.89-.07-3.69-.14-5.18-.07-5.2-.03-9.38-1.59-11.92-4.36-2.09-2.29-3.04-5.35-2.75-8.85.1-2.53,1.23-4.89,3.25-6.68,4.01-3.56,11.06-4.37,16.36-3.96,7.3-.04,15.11-.17,18.83,4.4,3.52,3.69,4.05,10.09,1.06,14.38Z"/>
    <path class="cls-1" d="M403.11,300.41c51.97.14,195.21.14,247.18,0,6.79-.17,14.02-.45,18.98-4.14,12.39-13.13,7.99-36.05,8.95-56.52.09-16.73.19-33.41.28-50.15-1.42-30.76,5.5-70.38-31.88-50.99-22.42,10.27-59.76,29.05-83.9,40.57-10.37,4.55-21.46,11.31-32.55,10.86l-.55-.06c-9.62.49-24.18-22.89-35.88-38.63-33.31-44.82-64.53-80.58-100.22-138.02-2.51-4.04-8.87-14.42-13.35-13.22-2.24.6-3.45,3.95-4.11,7.87v267.8c.89,7.41,2.61,13.86,6.02,18.55,4.94,5.65,13.19,5.84,21.04,6.1ZM592.56,247.44c.29-3.59,2.93-6.53,5.32-9.25,5.79-5.99,12.49-13.53,17.73-14.02,6.51-.35,11.08,5.71,15.62,9.9,3.72,3.94,8.77,8.67,8.84,13.8-.07,5.14-5.12,9.85-8.84,13.8-4.11,3.89-8.22,8.94-13.79,9.9-7.5.48-14.25-8.96-19.56-14.02-2.39-2.71-5.04-5.66-5.32-9.25v-.87ZM502.77,248.06c.29-3.59,2.93-6.53,5.32-9.25,5.79-5.99,12.49-13.53,17.73-14.02,6.52-.35,11.08,5.71,15.62,9.91,3.72,3.94,8.78,8.67,8.84,13.8-.07,5.14-5.12,9.85-8.84,13.8-4.11,3.89-8.22,8.94-13.79,9.91-7.5.47-14.25-8.96-19.56-14.02-2.39-2.71-5.04-5.67-5.32-9.25v-.87ZM422.16,234.07c4.11-3.89,8.22-8.94,13.79-9.9,7.5-.48,14.25,8.96,19.56,14.02,2.39,2.71,5.04,5.66,5.32,9.25v.87c-.29,3.59-2.93,6.53-5.32,9.25-5.79,5.99-12.49,13.53-17.73,14.02-6.52.35-11.08-5.71-15.62-9.9-3.72-3.94-8.77-8.67-8.84-13.8.07-5.14,5.12-9.85,8.84-13.8Z"/>
    <path class="cls-1" d="M9.78,296.27c4.96,3.69,12.19,3.98,18.98,4.14,51.97.14,195.21.14,247.18,0,7.86-.26,16.1-.45,21.05-6.1,3.4-4.7,5.13-11.15,6.02-18.55V7.96c-.66-3.92-1.87-7.27-4.11-7.87-4.48-1.2-10.83,9.18-13.35,13.22-35.7,57.44-66.91,93.2-100.22,138.02-11.7,15.74-26.25,39.12-35.88,38.63l-.55.06c-11.1.45-22.18-6.31-32.55-10.86-24.14-11.52-61.47-30.3-83.9-40.57C-4.95,119.21,1.97,158.84.55,189.6c.09,16.74.19,33.41.28,50.15.95,20.47-3.44,43.39,8.95,56.52ZM218.2,247.44c.29-3.59,2.93-6.53,5.32-9.25,5.31-5.06,12.06-14.49,19.56-14.02,5.57.96,9.68,6.01,13.79,9.9,3.72,3.95,8.77,8.66,8.84,13.8-.07,5.13-5.12,9.85-8.84,13.8-4.54,4.2-9.1,10.25-15.62,9.9-5.25-.48-11.95-8.03-17.73-14.02-2.39-2.72-5.04-5.66-5.32-9.25v-.87ZM137.6,234.7c4.54-4.2,9.1-10.25,15.62-9.91,5.25.48,11.95,8.03,17.73,14.02,2.39,2.72,5.04,5.66,5.32,9.25v.87c-.29,3.59-2.93,6.54-5.32,9.25-5.31,5.06-12.06,14.49-19.56,14.02-5.57-.97-9.68-6.01-13.79-9.91-3.72-3.95-8.77-8.66-8.84-13.8.06-5.13,5.12-9.86,8.84-13.8ZM47.8,234.07c4.54-4.2,9.1-10.25,15.62-9.9,5.25.48,11.95,8.03,17.73,14.02,2.39,2.72,5.04,5.66,5.32,9.25v.87c-.29,3.59-2.93,6.53-5.32,9.25-5.31,5.06-12.06,14.49-19.56,14.02-5.57-.97-9.68-6.01-13.79-9.9-3.72-3.95-8.77-8.66-8.84-13.8.06-5.13,5.12-9.85,8.84-13.8Z"/>
    <path class="cls-1" d="M395.22,373.67c-20.11.41-20.04,3.74-20.16,23.15l.08,445.25c.3,4.92-.03,10.32,4.05,13.35l.27.18c2.8,3.7,33.01,2.35,50.73,2.69l221.47-.04c11.2-.11,18-.42,21.7-2.49,5.18-3.19,4.7-9.66,4.92-16.09.03-68.04.18-390.21-.08-450.51,1.47-20.64-18.89-14.52-42.79-15.65l-240.18.15ZM615.73,703.56c-6.21,8.45-36.37,8.88-72.17,8.63-6.19-.04-11.48-.1-15.31,0-4.49-.19-11.28-.12-19.13-.05-34.75.32-64.05-.04-70.84-8.19-1.43-1.71-1.96-3.74-1.55-5.87l.24-1.22,1.02-.7c8.6-5.93,19.69-6.61,32.53-7.38l6.21-.39c8.78-.2,18.86-.19,29.43-.17,5.58.02,11.3.02,17.17,0,6.93.24,15.23.12,24.02.02,5.2-.07,10.55-.15,15.88-.15,20.93,0,41.6,1.14,52.5,7.95l.98,1.46c.68,2.12.34,4.28-.97,6.05ZM615.83,618.71c-5.68,8.47-31.09,8.79-61.24,8.31-5.96-.09-11.13-.17-13.78,0-10.24.59-40.76-.92-43.21-10.34-.9-3.44,1.49-6.57,7.37-9.45,11.38-4.25,25.3-4.26,38.71-4.17,2.66,0,5.33.02,8.12,0,4.26.14,9.23.08,14.48,0,3.19-.04,6.46-.08,9.72-.08,15.46,0,31.02.92,39.4,7.24l.95,1.26c1.39,3.26.49,5.72-.51,7.21ZM443.74,777.54c11.64-4.25,25.89-4.23,39.64-4.16,2.73,0,5.47.02,8.31,0,4.38.14,9.47.07,14.86,0,3.33-.04,6.74-.08,10.15-.08,15.75,0,31.55.9,39.81,6.94l1.29,1.54c1.42,3.22.54,5.67-.45,7.16-5.67,8.53-31.73,8.86-62.73,8.39-6.15-.09-11.46-.16-14.15,0h-.03c-10.53.6-41.82-.92-44.23-10.38-1.32-5.19,5.15-8.29,7.54-9.41ZM436.02,616.41c-.31-3.31.6-6.23,2.63-8.48,2.75-3.04,7.52-4.74,13.58-4.77,1.74.09,3.78,0,5.95-.07,1.76-.06,3.58-.12,5.39-.12,6.11,0,12.16.69,15.88,4.45l.57.67c3.47,4.4,2.86,10.91-1.2,14.67-4.07,4.4-12.38,4.32-21.13,4.27-6.16.43-14.26-.51-18.54-4.32-1.94-1.73-3.03-3.95-3.14-6.31ZM441.11,523.62c8.36-4.61,18.2-4.62,28.62-4.62l4.82-.02c2.97.11,6.33.05,9.86,0,2.19-.03,4.42-.06,6.66-.06,11.23,0,22.63.77,28.92,6.2l1.14,1.37c1.97,4.02,1.06,6.95-.05,8.71-4.8,7.6-22.76,8.03-42.41,7.77-2.9-.04-5.39-.09-7.21-.02-5.2.36-31.32.23-35.01-9.22-.88-2.26-.86-5.79,4.66-10.11ZM615.73,449.79c-6.21,8.45-36.35,8.93-72.23,8.62-6.15-.05-11.42-.11-15.25,0-4.48-.18-11.25-.11-19.08-.04-34.74.35-64.09-.03-70.89-8.19-1.43-1.71-1.96-3.74-1.55-5.87l.24-1.22,1.02-.7c8.6-5.93,19.69-6.61,32.53-7.38l6.2-.39c8.8-.22,18.87-.2,29.44-.17,5.57.02,11.3.02,17.16,0,6.9.26,15.19.13,23.97,0,5.35-.07,10.85-.15,16.32-.15,20.77,0,41.16,1.1,51.56,7.54l1.53,1.88c.68,2.12.34,4.28-.97,6.06ZM615.84,535.43c-4.81,7.38-21.56,7.83-39.68,7.54-2.75-.04-5.11-.08-6.64-.02-7.26.58-29.44-.51-32.94-9.01-.93-2.26-1.02-5.83,4.3-10.27,7.89-4.65,17.14-4.66,26.93-4.66l4.52-.02c2.75.1,5.9.05,9.2,0,2.02-.03,4.09-.06,6.16-.06,10.59,0,21.39.79,27.51,6.45l.88,1.18c1.89,4.13.92,7.1-.23,8.87ZM614.54,792.93c-3.73,4.58-11.53,4.44-18.83,4.4-5.31.41-12.35-.4-16.36-3.96-2.02-1.79-3.15-4.15-3.25-6.68-.29-3.5.66-6.57,2.75-8.85,2.55-2.78,6.72-4.33,11.92-4.36,1.49.07,3.29,0,5.18-.07,1.49-.06,3.05-.11,4.64-.11,5.44,0,11.12.69,14.52,4.6l.49.66c2.99,4.29,2.45,10.69-1.06,14.38Z"/>
  </g>
</svg>